<svg width="200" height="35" fill="none" xmlns="http://www.w3.org/2000/svg"><path d="M100.871.802h-5.056v13.562h5.056c2.117 0 3.841-.627 5.213-1.92 1.372-1.294 2.039-2.9 2.039-4.86 0-1.96-.667-3.568-2.039-4.861-1.332-1.294-3.096-1.92-5.213-1.92zm3.41 10.113c-.862.862-1.999 1.294-3.41 1.294h-2.665v-9.25h2.665c1.411 0 2.548.43 3.41 1.293.863.862 1.294 1.96 1.294 3.331 0 1.372-.431 2.47-1.294 3.332zm10.427-6.859h-3.92v1.999h3.567c.823 0 1.45.117 1.881.47.392.314.627.706.627 1.49h-2.822c-1.254 0-2.234.235-3.018.783-.745.588-1.137 1.412-1.137 2.509 0 1.098.353 1.803 1.059 2.352.705.549 1.568.705 2.587.705h5.644V8.29c0-1.372-.392-2.352-1.137-3.136-.744-.745-1.881-1.137-3.371-1.137l.04.04zm2.234 6.624v1.96h-2.705c-.588 0-1.058 0-1.411-.275-.353-.274-.549-.627-.549-1.097s.196-.902.628-1.215c.431-.275.98-.353 1.724-.353h2.352v.98h-.039zm20.069-2.391c0-1.372-.392-2.352-1.137-3.136-.745-.745-1.881-1.137-3.371-1.137h-3.92v2h3.567c.823 0 1.451.117 1.882.47.392.313.627.705.627 1.49h-2.822c-1.255 0-2.235.234-3.018.783-.745.588-1.137 1.411-1.137 2.509 0 1.097.353 1.803 1.058 2.352.706.548 1.568.705 2.587.705h5.644V8.25l.04.039zm-2.274 2.352v1.96h-2.704c-.588 0-1.059 0-1.411-.275-.392-.274-.549-.627-.549-1.097s.196-.902.627-1.215c.431-.275.98-.353 1.725-.353h2.351v.98h-.039zm-10.661 3.723h2.116v-1.92h-1.45c-.823 0-1.254-.432-1.254-1.294V6.055h2.744v-2h-2.744V.803h-2.352v10.74c0 2 .98 2.822 2.94 2.822zm-7.252 13.445h-4.547v-4.116h-2.351v10.191h2.351V29.77h4.547v4.115h2.352v-10.19h-2.352v4.115zm11.603 0h-4.547v-4.116h-2.352v10.191h2.352V29.77h4.547v4.115h2.351v-10.19h-2.351v4.115zm9.603-4.351c-1.568 0-2.862.51-3.92 1.568-1.058 1.058-1.568 2.313-1.568 3.802 0 1.49.51 2.744 1.568 3.763 1.019 1.019 2.313 1.568 3.881 1.568 1.567 0 2.861-.51 3.919-1.568 1.059-1.058 1.568-2.313 1.568-3.763 0-1.45-.509-2.744-1.568-3.802-1.058-1.02-2.352-1.568-3.88-1.568zm2.234 7.683c-.588.627-1.333.94-2.234.94-.902 0-1.646-.313-2.234-.98a3.293 3.293 0 01-.902-2.312c0-.902.274-1.725.862-2.352.588-.627 1.333-.94 2.235-.94.901 0 1.646.313 2.234.94.588.627.901 1.411.901 2.352 0 .94-.274 1.724-.862 2.352zm57.384-7.448v8.231h-2.038c-.823 0-1.45-.117-1.881-.47-.392-.313-.628-.823-.628-1.607v-6.115h-2.312v5.84c0 1.373.392 2.51 1.136 3.254.745.745 1.882 1.137 3.371 1.137H200v-10.23h-2.352v-.04zm-11.406 8.192h-2.038c-.823 0-1.451-.117-1.882-.47-.392-.314-.627-.823-.627-1.607v-6.115h-2.313v5.84c0 1.372.392 2.51 1.137 3.254.745.745 1.882 1.137 3.371 1.137h4.704v-10.23h-2.352v8.23-.039zm-81.294 0h-4.273c-.823 0-1.45-.117-1.881-.47-.392-.314-.627-.823-.627-1.607V20.36h-2.313v9.172c0 1.372.392 2.51 1.137 3.254.744.745 1.881 1.137 3.371 1.137h6.977V20.36h-2.352v11.563l-.039-.039zm71.534-8.192h-2.352v8.231h-2.038c-.823 0-1.45-.117-1.882-.47-.392-.313-.627-.823-.627-1.607v-6.115h-2.312v5.84c0 1.373.392 2.51 1.136 3.254.745.745 1.882 1.137 3.371 1.137h6.233v-2h-1.529v-8.27zm-15.679 0h-3.92v2h3.567c.824 0 1.451.117 1.882.47.392.313.627.627.627 1.41h-2.822c-1.254 0-2.234.236-3.018.785-.745.588-1.137 1.41-1.137 2.508s.353 1.803 1.058 2.352c.706.549 1.568.706 2.587.706h5.645v-6.076c0-1.372-.392-2.273-1.137-3.057-.745-.745-1.882-1.137-3.371-1.137l.039.04zm2.234 6.546v1.96h-2.704c-.588 0-1.059 0-1.411-.274-.392-.275-.549-.628-.549-1.098 0-.47.196-.902.627-1.215.431-.274.98-.353 1.725-.353h2.352v.98h-.04zm-9.564-1.881a3.587 3.587 0 00-1.489-.588c.353-.079 1.097-.588 1.097-1.882 0-1.293-.156-1.215-.784-1.646-.705-.51-1.881-.549-2.469-.588h-4.508v10.23h5.645c1.019 0 1.881-.117 2.587-.705.705-.549 1.058-1.333 1.058-2.352 0-1.02-.353-1.96-1.137-2.509v.04zm-5.879-2.98h1.764c.548 0 .98.08 1.293.275.314.196.471.51.471.902s-.236.627-.51.823c-.274.196-.627.196-1.058.196h-1.96v-2.195zm4.155 6.507c-.392.275-.863.275-1.411.275h-2.705v-2.94h2.352c.745 0 1.333.078 1.724.353.432.274.628.666.628 1.215s-.196.823-.549 1.097h-.039zM14.212 9.228l-2.356 2.356 2.356 2.356 2.356-2.356-2.356-2.356zM2.356 15.109L0 17.465l2.356 2.355 2.356-2.355-2.356-2.356zM62.693.802H50.934l-7.839 7.84 5.88 5.88L62.692.801zm-28.412 4.89L31.343 8.63l2.938 2.938L37.22 8.63l-2.938-2.938zm-8.819 8.828l-2.938 2.937 2.938 2.938 2.938-2.938-2.938-2.938zM66.652.802l-5.88 5.88L71.593 17.5l-10.82 10.818 5.88 5.88c5.174 0 8.388-1.568 11.68-4.743 3.333-3.175 4.979-7.134 4.979-11.916s-1.646-8.78-4.939-11.916C75.04 2.37 71.865.803 66.652.803zM31.28 20.426l-2.938 2.938 2.938 2.938 2.938-2.938-2.938-2.938zm8.915-8.879l-5.904 5.904 5.904 5.903 5.904-5.903-5.904-5.904zm2.9 14.773l7.84 7.8h11.758L48.975 20.4l-5.88 5.92z" fill="#fff"/></svg>