<svg width="200" height="35" viewBox="0 0 200 35" fill="none" xmlns="http://www.w3.org/2000/svg">
<path d="M100.871 0.802246H95.8148V14.3644H100.871C102.988 14.3644 104.712 13.7372 106.084 12.4437C107.456 11.1502 108.123 9.54315 108.123 7.5833C108.123 5.62346 107.456 4.01639 106.084 2.72289C104.752 1.4294 102.988 0.802246 100.871 0.802246ZM104.281 10.915C103.419 11.7774 102.282 12.2085 100.871 12.2085H98.2058V2.95807H100.871C102.282 2.95807 103.419 3.38924 104.281 4.25157C105.144 5.1139 105.575 6.21141 105.575 7.5833C105.575 8.95519 105.144 10.0527 104.281 10.915Z" fill="white"/>
<path d="M114.708 4.05557C114.668 4.05557 114.629 4.05557 114.551 4.05557H110.788V6.05461H114.355C115.178 6.05461 115.805 6.1722 116.236 6.52497C116.628 6.83854 116.863 7.23051 116.863 8.01445H114.041C112.787 8.01445 111.807 8.24963 111.023 8.79839C110.278 9.38634 109.886 10.2095 109.886 11.307C109.886 12.4045 110.239 13.11 110.945 13.6588C111.65 14.2076 112.513 14.3643 113.532 14.3643H119.176V8.28883C119.176 6.91694 118.784 5.93702 118.039 5.15308C117.295 4.40834 116.158 4.01637 114.668 4.01637L114.708 4.05557ZM116.942 10.6798V12.6397H114.237C113.649 12.6397 113.179 12.6397 112.826 12.3653C112.473 12.0909 112.277 11.7382 112.277 11.2678C112.277 10.7974 112.473 10.3663 112.905 10.0527C113.336 9.77831 113.885 9.69991 114.629 9.69991H116.981V10.6798H116.942Z" fill="white"/>
<path d="M137.011 8.28883C137.011 6.91694 136.619 5.93702 135.874 5.15308C135.129 4.40834 133.993 4.01637 132.503 4.01637C131.014 4.01637 132.425 4.01637 132.346 4.01637H128.583V6.01541H132.15C132.973 6.01541 133.601 6.133 134.032 6.48577C134.424 6.79935 134.659 7.19131 134.659 7.97525H131.837C130.582 7.97525 129.602 8.21043 128.819 8.75919C128.074 9.34714 127.682 10.1703 127.682 11.2678C127.682 12.3653 128.035 13.0708 128.74 13.6196C129.446 14.1684 130.308 14.3251 131.327 14.3251H136.971V8.24963L137.011 8.28883ZM134.737 10.6406V12.6005H132.033C131.445 12.6005 130.974 12.6005 130.622 12.3261C130.23 12.0517 130.073 11.699 130.073 11.2286C130.073 10.7582 130.269 10.3271 130.7 10.0135C131.131 9.73911 131.68 9.66072 132.425 9.66072H134.776V10.6406H134.737Z" fill="white"/>
<path d="M124.076 14.3644H126.192V12.4437C125.761 12.4437 125.252 12.4437 124.742 12.4437C123.919 12.4437 123.488 12.0125 123.488 11.1502V6.05463H126.232V4.05559H123.488V0.802246H121.136V11.5422C121.136 13.5412 122.116 14.3644 124.076 14.3644Z" fill="white"/>
<path d="M116.824 27.8088H112.277V23.6932H109.926V33.8844H112.277V29.7687H116.824V33.8844H119.176V23.6932H116.824V27.8088Z" fill="white"/>
<path d="M128.427 27.8088H123.88V23.6932H121.528V33.8844H123.88V29.7687H128.427V33.8844H130.778V23.6932H128.427V27.8088Z" fill="white"/>
<path d="M138.03 23.458C136.462 23.458 135.168 23.9676 134.11 25.0259C133.052 26.0842 132.542 27.3385 132.542 28.828C132.542 30.3175 133.052 31.5718 134.11 32.5909C135.129 33.61 136.423 34.1588 137.991 34.1588C139.558 34.1588 140.852 33.6492 141.91 32.5909C142.969 31.5326 143.478 30.2783 143.478 28.828C143.478 27.3777 142.969 26.0842 141.91 25.0259C140.852 24.0068 139.558 23.458 138.03 23.458ZM140.264 31.1406C139.676 31.7678 138.931 32.0814 138.03 32.0814C137.128 32.0814 136.384 31.7678 135.796 31.1014C135.208 30.4743 134.894 29.6904 134.894 28.7888C134.894 27.8873 135.168 27.0642 135.756 26.437C136.344 25.8099 137.089 25.4963 137.991 25.4963C138.892 25.4963 139.637 25.8099 140.225 26.437C140.813 27.0642 141.126 27.8481 141.126 28.7888C141.126 29.7295 140.852 30.5135 140.264 31.1406Z" fill="white"/>
<path d="M197.648 23.6932V31.9245H195.61C194.787 31.9245 194.16 31.8069 193.729 31.4541C193.337 31.1406 193.101 30.631 193.101 29.8471V23.7324H190.789V29.5727C190.789 30.9446 191.181 32.0813 191.925 32.826C192.67 33.5708 193.807 33.9627 195.296 33.9627C196.786 33.9627 195.375 33.9627 195.453 33.9627H200V23.7324H197.648V23.6932Z" fill="white"/>
<path d="M186.242 31.8853H184.204C183.381 31.8853 182.753 31.7677 182.322 31.415C181.93 31.1014 181.695 30.5918 181.695 29.8079V23.6932H179.382V29.5335C179.382 30.9054 179.774 32.0421 180.519 32.7868C181.264 33.5316 182.401 33.9236 183.89 33.9236C185.38 33.9236 183.968 33.9236 184.047 33.9236H188.594V23.6932H186.242V31.9245V31.8853Z" fill="white"/>
<path d="M104.948 31.8853H100.675C99.852 31.8853 99.2249 31.7677 98.7937 31.415C98.4018 31.1014 98.1666 30.5918 98.1666 29.8079V20.3614H95.854V29.5335C95.854 30.9054 96.2459 32.0421 96.9907 32.7868C97.7354 33.5316 98.8721 33.9236 100.362 33.9236C101.851 33.9236 100.44 33.9236 100.518 33.9236H107.339V20.3614H104.987V31.9245L104.948 31.8853Z" fill="white"/>
<path d="M176.482 23.6932H174.13V31.9245H172.092C171.269 31.9245 170.642 31.8069 170.21 31.4541C169.818 31.1406 169.583 30.631 169.583 29.8471V23.7324H167.271V29.5727C167.271 30.9446 167.663 32.0813 168.407 32.826C169.152 33.5708 170.289 33.9627 171.778 33.9627C173.268 33.9627 171.857 33.9627 171.935 33.9627H178.011V31.9637H176.482V23.6932Z" fill="white"/>
<path d="M160.803 23.6932C160.764 23.6932 160.725 23.6932 160.646 23.6932H156.883V25.6923H160.45C161.274 25.6923 161.901 25.8099 162.332 26.1626C162.724 26.4762 162.959 26.7898 162.959 27.5737H160.137C158.883 27.5737 157.903 27.8089 157.119 28.3577C156.374 28.9456 155.982 29.7687 155.982 30.8663C155.982 31.9638 156.335 32.6693 157.04 33.2181C157.746 33.7668 158.608 33.9236 159.627 33.9236H165.272V27.8481C165.272 26.4762 164.88 25.5747 164.135 24.7907C163.39 24.046 162.253 23.654 160.764 23.654L160.803 23.6932ZM163.037 30.2391V32.1989H160.333C159.745 32.1989 159.274 32.1989 158.922 31.9246C158.53 31.6502 158.373 31.2974 158.373 30.8271C158.373 30.3567 158.569 29.9255 159 29.612C159.431 29.3376 159.98 29.2592 160.725 29.2592H163.077V30.2391H163.037Z" fill="white"/>
<path d="M153.473 28.3577C152.729 27.8481 151.984 27.7697 151.984 27.7697C152.337 27.6913 153.081 27.1817 153.081 25.8883C153.081 24.5948 152.925 24.6732 152.297 24.242C151.592 23.7324 150.416 23.6932 149.828 23.654H146.496C145.83 23.654 145.32 23.654 145.32 23.654V33.8844H150.965C151.984 33.8844 152.846 33.7668 153.552 33.1789C154.257 32.6301 154.61 31.8462 154.61 30.8271C154.61 29.8079 154.257 28.8672 153.473 28.3185V28.3577ZM147.594 25.3787H149.358C149.906 25.3787 150.338 25.4571 150.651 25.6531C150.965 25.8491 151.122 26.1626 151.122 26.5546C151.122 26.9466 150.886 27.1818 150.612 27.3777C150.338 27.5737 149.985 27.5737 149.554 27.5737H147.594V25.3787ZM151.749 31.8854C151.357 32.1598 150.886 32.1597 150.338 32.1597H147.633V29.22H149.985C150.73 29.22 151.318 29.2984 151.709 29.5728C152.141 29.8471 152.337 30.2391 152.337 30.7879C152.337 31.3366 152.141 31.611 151.788 31.8854H151.749Z" fill="white"/>
<path d="M14.2122 9.22817L11.8563 11.5841L14.2122 13.94L16.568 11.5841L14.2122 9.22817Z" fill="white"/>
<path d="M2.35589 15.1087L0 17.4645L2.35589 19.8204L4.71178 17.4645L2.35589 15.1087Z" fill="white"/>
<path d="M62.6934 0.802246H50.9344L43.095 8.64162L48.9745 14.5211L62.6934 0.802246Z" fill="white"/>
<path d="M34.2812 5.69201L31.3433 8.62994L34.2812 11.5679L37.2191 8.62994L34.2812 5.69201Z" fill="white"/>
<path d="M25.4619 14.5191L22.524 17.457L25.4619 20.3949L28.3998 17.457L25.4619 14.5191Z" fill="white"/>
<path d="M66.6523 0.802246L60.7728 6.68177L71.5911 17.5001L60.7728 28.3184L66.6523 34.198C71.8263 34.198 75.0404 32.6301 78.3329 29.4551C81.6647 26.2802 83.311 22.3213 83.311 17.5393C83.311 12.7573 81.6647 8.75921 78.3721 5.62346C75.0404 2.37012 71.8655 0.802246 66.6523 0.802246Z" fill="white"/>
<path d="M31.2797 20.4263L28.3417 23.3643L31.2797 26.3022L34.2176 23.3643L31.2797 20.4263Z" fill="white"/>
<path d="M40.1949 11.547L34.2913 17.4506L40.1949 23.3542L46.0985 17.4506L40.1949 11.547Z" fill="white"/>
<path d="M43.095 26.3194L50.9344 34.1196H62.6934L48.9745 20.4007L43.095 26.3194Z" fill="white"/>
</svg>
